<svg xmlns="http://www.w3.org/2000/svg" xmlns:xlink="http://www.w3.org/1999/xlink" width="500" zoomAndPan="magnify" viewBox="0 0 375 374.999991" height="500" preserveAspectRatio="xMidYMid meet" version="1.0"><defs><clipPath id="240a841d51"><path d="M 303 287 L 373.5 287 L 373.5 353 L 303 353 Z M 303 287 " clip-rule="nonzero"/></clipPath><clipPath id="b1c6681446"><path d="M 0 14.90625 L 346 14.90625 L 346 359.90625 L 0 359.90625 Z M 0 14.90625 " clip-rule="nonzero"/></clipPath></defs><g clip-path="url(#240a841d51)"><path fill="#8c52ff" d="M 313.871094 287.160156 C 313.871094 287.160156 325.625 314.960938 345.589844 314.128906 C 365.550781 313.226562 373.308594 306.070312 373.308594 306.070312 L 367.207031 352.324219 C 367.207031 352.324219 307.769531 353.980469 303.703125 300.195312 C 302.949219 289.949219 313.871094 287.160156 313.871094 287.160156 Z M 313.871094 287.160156 " fill-opacity="1" fill-rule="nonzero"/></g><path fill="#8c52ff" d="M 291.574219 187.496094 C 291.574219 189.4375 291.527344 191.375 291.429688 193.3125 C 291.335938 195.253906 291.195312 197.1875 291.003906 199.117188 C 290.8125 201.050781 290.574219 202.976562 290.289062 204.894531 C 290.007812 206.8125 289.675781 208.726562 289.296875 210.628906 C 288.917969 212.53125 288.492188 214.425781 288.019531 216.308594 C 287.550781 218.1875 287.03125 220.058594 286.46875 221.917969 C 285.90625 223.773438 285.296875 225.613281 284.644531 227.441406 C 283.988281 229.269531 283.289062 231.078125 282.546875 232.871094 C 281.804688 234.664062 281.019531 236.4375 280.191406 238.191406 C 279.359375 239.945312 278.488281 241.679688 277.574219 243.390625 C 276.660156 245.101562 275.703125 246.789062 274.703125 248.453125 C 273.707031 250.121094 272.667969 251.757812 271.589844 253.371094 C 270.511719 254.984375 269.394531 256.570312 268.238281 258.128906 C 267.082031 259.6875 265.890625 261.21875 264.660156 262.71875 C 263.429688 264.21875 262.160156 265.6875 260.859375 267.125 C 259.554688 268.5625 258.21875 269.96875 256.84375 271.339844 C 255.472656 272.710938 254.066406 274.050781 252.628906 275.351562 C 251.191406 276.65625 249.722656 277.921875 248.222656 279.15625 C 246.722656 280.386719 245.191406 281.578125 243.632812 282.734375 C 242.074219 283.890625 240.488281 285.007812 238.875 286.085938 C 237.261719 287.164062 235.625 288.203125 233.960938 289.199219 C 232.292969 290.199219 230.605469 291.152344 228.894531 292.070312 C 227.183594 292.984375 225.453125 293.855469 223.695312 294.683594 C 221.941406 295.515625 220.167969 296.300781 218.375 297.042969 C 216.582031 297.785156 214.773438 298.484375 212.945312 299.136719 C 211.121094 299.792969 209.277344 300.402344 207.421875 300.964844 C 205.5625 301.527344 203.695312 302.042969 201.8125 302.515625 C 199.929688 302.988281 198.035156 303.414062 196.132812 303.792969 C 194.230469 304.171875 192.316406 304.5 190.398438 304.785156 C 188.480469 305.070312 186.554688 305.308594 184.621094 305.5 C 182.691406 305.6875 180.757812 305.832031 178.816406 305.925781 C 176.878906 306.023438 174.941406 306.070312 173 306.070312 C 171.058594 306.070312 169.121094 306.023438 167.183594 305.925781 C 165.242188 305.832031 163.308594 305.6875 161.378906 305.5 C 159.445312 305.308594 157.519531 305.070312 155.601562 304.785156 C 153.683594 304.5 151.769531 304.171875 149.867188 303.792969 C 147.964844 303.414062 146.070312 302.988281 144.1875 302.515625 C 142.304688 302.042969 140.4375 301.527344 138.578125 300.964844 C 136.722656 300.402344 134.878906 299.792969 133.054688 299.136719 C 131.226562 298.484375 129.417969 297.785156 127.625 297.042969 C 125.832031 296.300781 124.058594 295.515625 122.304688 294.683594 C 120.550781 293.855469 118.816406 292.984375 117.105469 292.070312 C 115.394531 291.152344 113.707031 290.199219 112.039062 289.199219 C 110.375 288.203125 108.738281 287.164062 107.125 286.085938 C 105.511719 285.007812 103.925781 283.890625 102.367188 282.734375 C 100.808594 281.578125 99.277344 280.386719 97.777344 279.15625 C 96.277344 277.921875 94.808594 276.65625 93.371094 275.351562 C 91.933594 274.050781 90.527344 272.710938 89.15625 271.339844 C 87.785156 269.96875 86.445312 268.5625 85.140625 267.125 C 83.839844 265.6875 82.570312 264.21875 81.339844 262.71875 C 80.109375 261.21875 78.917969 259.6875 77.761719 258.128906 C 76.605469 256.570312 75.488281 254.984375 74.410156 253.371094 C 73.332031 251.757812 72.292969 250.121094 71.296875 248.453125 C 70.296875 246.789062 69.339844 245.101562 68.425781 243.390625 C 67.511719 241.679688 66.640625 239.945312 65.808594 238.191406 C 64.980469 236.4375 64.195312 234.664062 63.453125 232.871094 C 62.710938 231.078125 62.011719 229.269531 61.355469 227.441406 C 60.703125 225.613281 60.09375 223.773438 59.53125 221.917969 C 58.96875 220.058594 58.449219 218.1875 57.980469 216.308594 C 57.507812 214.425781 57.082031 212.53125 56.703125 210.628906 C 56.324219 208.726562 55.992188 206.8125 55.710938 204.894531 C 55.425781 202.976562 55.1875 201.050781 54.996094 199.117188 C 54.808594 197.1875 54.664062 195.253906 54.570312 193.3125 C 54.472656 191.375 54.425781 189.4375 54.425781 187.496094 C 54.425781 185.554688 54.472656 183.617188 54.570312 181.675781 C 54.664062 179.738281 54.808594 177.804688 54.996094 175.875 C 55.1875 173.941406 55.425781 172.015625 55.710938 170.097656 C 55.992188 168.179688 56.324219 166.265625 56.703125 164.363281 C 57.082031 162.460938 57.507812 160.566406 57.980469 158.683594 C 58.449219 156.800781 58.96875 154.933594 59.53125 153.074219 C 60.09375 151.21875 60.703125 149.375 61.355469 147.550781 C 62.011719 145.722656 62.710938 143.914062 63.453125 142.121094 C 64.195312 140.328125 64.980469 138.554688 65.808594 136.796875 C 66.640625 135.042969 67.511719 133.3125 68.425781 131.601562 C 69.339844 129.890625 70.296875 128.199219 71.296875 126.535156 C 72.292969 124.871094 73.332031 123.234375 74.410156 121.621094 C 75.488281 120.007812 76.605469 118.417969 77.761719 116.859375 C 78.917969 115.300781 80.109375 113.773438 81.339844 112.273438 C 82.570312 110.773438 83.839844 109.304688 85.140625 107.867188 C 86.445312 106.429688 87.785156 105.023438 89.15625 103.652344 C 90.527344 102.277344 91.933594 100.941406 93.371094 99.636719 C 94.808594 98.335938 96.277344 97.066406 97.777344 95.835938 C 99.277344 94.605469 100.808594 93.414062 102.367188 92.257812 C 103.925781 91.101562 105.511719 89.984375 107.125 88.90625 C 108.738281 87.828125 110.375 86.789062 112.039062 85.792969 C 113.707031 84.792969 115.394531 83.835938 117.105469 82.921875 C 118.816406 82.007812 120.550781 81.136719 122.304688 80.304688 C 124.058594 79.476562 125.832031 78.691406 127.625 77.949219 C 129.417969 77.203125 131.226562 76.507812 133.054688 75.851562 C 134.878906 75.199219 136.722656 74.589844 138.578125 74.027344 C 140.4375 73.464844 142.304688 72.945312 144.1875 72.476562 C 146.070312 72.003906 147.964844 71.578125 149.867188 71.199219 C 151.769531 70.820312 153.683594 70.488281 155.601562 70.203125 C 157.519531 69.921875 159.445312 69.683594 161.378906 69.492188 C 163.308594 69.300781 165.242188 69.160156 167.183594 69.066406 C 169.121094 68.96875 171.058594 68.921875 173 68.921875 C 174.941406 68.921875 176.878906 68.96875 178.816406 69.066406 C 180.757812 69.160156 182.691406 69.300781 184.621094 69.492188 C 186.554688 69.683594 188.480469 69.921875 190.398438 70.203125 C 192.316406 70.488281 194.230469 70.820312 196.132812 71.199219 C 198.035156 71.578125 199.929688 72.003906 201.8125 72.476562 C 203.695312 72.945312 205.5625 73.464844 207.421875 74.027344 C 209.277344 74.589844 211.121094 75.199219 212.945312 75.851562 C 214.773438 76.507812 216.582031 77.203125 218.375 77.949219 C 220.167969 78.691406 221.941406 79.476562 223.695312 80.304688 C 225.453125 81.136719 227.183594 82.007812 228.894531 82.921875 C 230.605469 83.835938 232.292969 84.792969 233.960938 85.792969 C 235.625 86.789062 237.261719 87.828125 238.875 88.90625 C 240.488281 89.984375 242.074219 91.101562 243.632812 92.257812 C 245.191406 93.414062 246.722656 94.605469 248.222656 95.835938 C 249.722656 97.066406 251.191406 98.335938 252.628906 99.636719 C 254.066406 100.941406 255.472656 102.277344 256.84375 103.652344 C 258.21875 105.023438 259.554688 106.429688 260.859375 107.867188 C 262.160156 109.304688 263.429688 110.773438 264.660156 112.273438 C 265.890625 113.773438 267.082031 115.300781 268.238281 116.859375 C 269.394531 118.417969 270.511719 120.007812 271.589844 121.621094 C 272.667969 123.234375 273.707031 124.871094 274.703125 126.535156 C 275.703125 128.199219 276.660156 129.890625 277.574219 131.601562 C 278.488281 133.3125 279.359375 135.042969 280.191406 136.796875 C 281.019531 138.554688 281.804688 140.328125 282.546875 142.121094 C 283.289062 143.914062 283.988281 145.722656 284.644531 147.550781 C 285.296875 149.375 285.90625 151.21875 286.46875 153.074219 C 287.03125 154.933594 287.550781 156.800781 288.019531 158.683594 C 288.492188 160.566406 288.917969 162.460938 289.296875 164.363281 C 289.675781 166.265625 290.007812 168.179688 290.289062 170.097656 C 290.574219 172.015625 290.8125 173.941406 291.003906 175.875 C 291.195312 177.804688 291.335938 179.738281 291.429688 181.675781 C 291.527344 183.617188 291.574219 185.554688 291.574219 187.496094 Z M 291.574219 187.496094 " fill-opacity="1" fill-rule="nonzero"/><g clip-path="url(#b1c6681446)"><path fill="#ccccce" d="M 173 14.90625 C 77.703125 14.90625 0.414062 92.199219 0.414062 187.496094 C 0.414062 282.792969 77.703125 360.082031 173 360.082031 C 268.296875 360.082031 345.589844 282.792969 345.589844 187.496094 C 345.589844 92.199219 268.296875 14.90625 173 14.90625 Z M 173 45.570312 C 199.140625 45.570312 220.234375 66.738281 220.234375 92.800781 C 220.234375 118.867188 199.066406 140.035156 173 140.035156 C 146.933594 140.035156 125.765625 118.867188 125.765625 92.800781 C 125.765625 66.738281 146.859375 45.570312 173 45.570312 Z M 203.8125 181.996094 C 203.8125 185.234375 201.25 187.796875 198.011719 187.796875 C 194.769531 187.796875 192.210938 185.234375 192.210938 181.996094 C 192.210938 178.757812 194.769531 176.195312 198.011719 176.195312 C 201.25 176.195312 203.8125 178.757812 203.8125 181.996094 Z M 178.800781 156.910156 C 178.800781 160.148438 176.238281 162.710938 173 162.710938 C 169.761719 162.710938 167.199219 160.148438 167.199219 156.910156 C 167.199219 153.671875 169.761719 151.109375 173 151.109375 C 176.164062 151.109375 178.800781 153.746094 178.800781 156.910156 Z M 153.714844 181.996094 C 153.714844 185.234375 151.152344 187.796875 147.914062 187.796875 C 144.675781 187.796875 142.113281 185.234375 142.113281 181.996094 C 142.113281 178.757812 144.675781 176.195312 147.914062 176.195312 C 151.152344 176.195312 153.714844 178.757812 153.714844 181.996094 Z M 36.042969 160.902344 C 36.042969 134.839844 57.214844 113.667969 83.277344 113.667969 C 109.34375 113.667969 130.511719 134.839844 130.511719 160.902344 C 130.511719 186.96875 109.34375 208.136719 83.277344 208.136719 C 57.214844 208.136719 36.042969 187.042969 36.042969 160.902344 Z M 116.199219 310.664062 C 90.132812 310.664062 68.964844 289.496094 68.964844 263.429688 C 68.964844 237.367188 90.132812 216.199219 116.199219 216.199219 C 142.339844 216.199219 163.433594 237.367188 163.433594 263.429688 C 163.433594 289.496094 142.265625 310.664062 116.199219 310.664062 Z M 159.816406 181.996094 C 159.816406 174.6875 165.691406 168.8125 173 168.8125 C 180.308594 168.8125 186.183594 174.6875 186.183594 181.996094 C 186.183594 189.304688 180.308594 195.179688 173 195.179688 C 165.691406 195.179688 159.816406 189.226562 159.816406 181.996094 Z M 173 212.808594 C 169.761719 212.808594 167.199219 210.246094 167.199219 207.007812 C 167.199219 203.769531 169.761719 201.207031 173 201.207031 C 176.238281 201.207031 178.800781 203.769531 178.800781 207.007812 C 178.800781 210.246094 176.164062 212.808594 173 212.808594 Z M 228.898438 310.664062 C 202.832031 310.664062 181.664062 289.496094 181.664062 263.429688 C 181.664062 237.367188 202.832031 216.199219 228.898438 216.199219 C 255.039062 216.199219 276.132812 237.367188 276.132812 263.429688 C 276.207031 289.496094 255.039062 310.664062 228.898438 310.664062 Z M 262.644531 208.210938 C 236.582031 208.210938 215.414062 187.042969 215.414062 160.980469 C 215.414062 134.914062 236.582031 113.667969 262.644531 113.667969 C 288.785156 113.667969 309.878906 134.839844 309.878906 160.902344 C 309.878906 186.96875 288.785156 208.210938 262.644531 208.210938 Z M 262.644531 208.210938 " fill-opacity="1" fill-rule="nonzero"/></g><path fill="#b4b4b5" d="M 174.128906 346.371094 C 86.519531 346.371094 15.175781 275.109375 15.175781 187.421875 C 15.175781 99.808594 86.441406 28.46875 174.128906 28.46875 C 261.742188 28.46875 333.082031 99.734375 333.082031 187.421875 C 333.007812 275.109375 261.742188 346.371094 174.128906 346.371094 Z M 174.128906 36.078125 C 90.660156 36.078125 22.710938 104.027344 22.710938 187.496094 C 22.710938 270.964844 90.660156 338.914062 174.128906 338.914062 C 257.597656 338.914062 325.550781 270.964844 325.550781 187.496094 C 325.472656 104.027344 257.597656 36.078125 174.128906 36.078125 Z M 174.128906 36.078125 " fill-opacity="1" fill-rule="nonzero"/></svg>