<svg xmlns="http://www.w3.org/2000/svg" xmlns:xlink="http://www.w3.org/1999/xlink" width="200" zoomAndPan="magnify" viewBox="0 0 150 52.499999" height="70" preserveAspectRatio="xMidYMid meet" version="1.0"><defs><g/><clipPath id="eb8867cd64"><path d="M 34 37 L 41.570312 37 L 41.570312 43.78125 L 34 43.78125 Z M 34 37 " clip-rule="nonzero"/></clipPath><clipPath id="42ccaa540b"><path d="M 5.90625 11.09375 L 39 11.09375 L 39 43.78125 L 5.90625 43.78125 Z M 5.90625 11.09375 " clip-rule="nonzero"/></clipPath></defs><g fill="#ffffff" fill-opacity="1"><g transform="translate(42.831367, 32.688828)"><g><path d="M 11.265625 0 L 10.15625 -3.640625 L 4.59375 -3.640625 L 3.484375 0 L 0 0 L 5.390625 -15.328125 L 9.34375 -15.328125 L 14.765625 0 Z M 9.390625 -6.34375 C 8.367188 -9.644531 7.789062 -11.507812 7.65625 -11.9375 C 7.53125 -12.363281 7.441406 -12.707031 7.390625 -12.96875 C 7.160156 -12.070312 6.5 -9.863281 5.40625 -6.34375 Z M 9.390625 -6.34375 "/></g></g><g transform="translate(57.593844, 32.688828)"><g><path d="M 0.734375 5.140625 C -0.078125 5.140625 -0.78125 5.050781 -1.375 4.875 L -1.375 2.375 C -0.882812 2.5 -0.382812 2.5625 0.125 2.5625 C 0.65625 2.5625 1.046875 2.410156 1.296875 2.109375 C 1.546875 1.816406 1.671875 1.378906 1.671875 0.796875 L 1.671875 -11.671875 L 4.859375 -11.671875 L 4.859375 1.265625 C 4.859375 2.503906 4.5 3.457031 3.78125 4.125 C 3.0625 4.800781 2.046875 5.140625 0.734375 5.140625 Z M 1.53125 -14.703125 C 1.53125 -15.734375 2.109375 -16.25 3.265625 -16.25 C 4.421875 -16.25 5 -15.734375 5 -14.703125 C 5 -14.203125 4.851562 -13.8125 4.5625 -13.53125 C 4.28125 -13.257812 3.847656 -13.125 3.265625 -13.125 C 2.109375 -13.125 1.53125 -13.648438 1.53125 -14.703125 Z M 1.53125 -14.703125 "/></g></g><g transform="translate(64.123602, 32.688828)"><g><path d="M 1.53125 -14.703125 C 1.53125 -15.734375 2.109375 -16.25 3.265625 -16.25 C 4.421875 -16.25 5 -15.734375 5 -14.703125 C 5 -14.203125 4.851562 -13.8125 4.5625 -13.53125 C 4.28125 -13.257812 3.847656 -13.125 3.265625 -13.125 C 2.109375 -13.125 1.53125 -13.648438 1.53125 -14.703125 Z M 4.859375 0 L 1.671875 0 L 1.671875 -11.671875 L 4.859375 -11.671875 Z M 4.859375 0 "/></g></g><g transform="translate(70.65336, 32.688828)"><g><path d="M 0.640625 -4.421875 L 0.640625 -7.046875 L 6.25 -7.046875 L 6.25 -4.421875 Z M 0.640625 -4.421875 "/></g></g><g transform="translate(77.538337, 32.688828)"><g><path d="M 7.8125 0 L 4.578125 0 L 4.578125 -12.578125 L 0.421875 -12.578125 L 0.421875 -15.265625 L 11.953125 -15.265625 L 11.953125 -12.578125 L 7.8125 -12.578125 Z M 7.8125 0 "/></g></g><g transform="translate(89.929206, 32.688828)"><g><path d="M 8.125 -9.28125 L 5.375 -9.28125 L 5.375 0 L 2.1875 0 L 2.1875 -9.28125 L 0.421875 -9.28125 L 0.421875 -10.828125 L 2.1875 -11.671875 L 2.1875 -12.53125 C 2.1875 -13.863281 2.507812 -14.832031 3.15625 -15.4375 C 3.8125 -16.050781 4.863281 -16.359375 6.3125 -16.359375 C 7.40625 -16.359375 8.382812 -16.195312 9.25 -15.875 L 8.421875 -13.53125 C 7.785156 -13.738281 7.195312 -13.84375 6.65625 -13.84375 C 6.195312 -13.84375 5.867188 -13.707031 5.671875 -13.4375 C 5.472656 -13.164062 5.375 -12.820312 5.375 -12.40625 L 5.375 -11.671875 L 8.125 -11.671875 Z M 8.125 -9.28125 "/></g></g><g transform="translate(98.214163, 32.688828)"><g><path d="M 9.09375 0 L 8.46875 -1.59375 L 8.390625 -1.59375 C 7.847656 -0.914062 7.289062 -0.445312 6.71875 -0.1875 C 6.15625 0.0703125 5.421875 0.203125 4.515625 0.203125 C 3.390625 0.203125 2.503906 -0.113281 1.859375 -0.75 C 1.210938 -1.394531 0.890625 -2.304688 0.890625 -3.484375 C 0.890625 -4.722656 1.320312 -5.632812 2.1875 -6.21875 C 3.0625 -6.8125 4.375 -7.140625 6.125 -7.203125 L 8.140625 -7.265625 L 8.140625 -7.78125 C 8.140625 -8.96875 7.535156 -9.5625 6.328125 -9.5625 C 5.398438 -9.5625 4.304688 -9.273438 3.046875 -8.703125 L 1.984375 -10.859375 C 3.328125 -11.566406 4.816406 -11.921875 6.453125 -11.921875 C 8.023438 -11.921875 9.226562 -11.578125 10.0625 -10.890625 C 10.894531 -10.210938 11.3125 -9.175781 11.3125 -7.78125 L 11.3125 0 Z M 8.140625 -5.40625 L 6.921875 -5.375 C 5.992188 -5.34375 5.300781 -5.171875 4.84375 -4.859375 C 4.394531 -4.554688 4.171875 -4.09375 4.171875 -3.46875 C 4.171875 -2.570312 4.6875 -2.125 5.71875 -2.125 C 6.457031 -2.125 7.046875 -2.332031 7.484375 -2.75 C 7.921875 -3.175781 8.140625 -3.742188 8.140625 -4.453125 Z M 8.140625 -5.40625 "/></g></g><g transform="translate(111.13786, 32.688828)"><g><path d="M 8.1875 -11.890625 C 8.625 -11.890625 8.984375 -11.859375 9.265625 -11.796875 L 9.03125 -8.8125 C 8.769531 -8.882812 8.453125 -8.921875 8.078125 -8.921875 C 7.066406 -8.921875 6.273438 -8.660156 5.703125 -8.140625 C 5.140625 -7.617188 4.859375 -6.882812 4.859375 -5.9375 L 4.859375 0 L 1.671875 0 L 1.671875 -11.671875 L 4.078125 -11.671875 L 4.546875 -9.71875 L 4.703125 -9.71875 C 5.066406 -10.375 5.554688 -10.898438 6.171875 -11.296875 C 6.796875 -11.691406 7.46875 -11.890625 8.1875 -11.890625 Z M 8.1875 -11.890625 "/></g></g><g transform="translate(120.85414, 32.688828)"><g><path d="M 6.5 -9.625 C 5.832031 -9.625 5.304688 -9.410156 4.921875 -8.984375 C 4.535156 -8.554688 4.316406 -7.953125 4.265625 -7.171875 L 8.734375 -7.171875 C 8.710938 -7.953125 8.503906 -8.554688 8.109375 -8.984375 C 7.710938 -9.410156 7.175781 -9.625 6.5 -9.625 Z M 6.953125 0.203125 C 5.078125 0.203125 3.609375 -0.3125 2.546875 -1.34375 C 1.484375 -2.382812 0.953125 -3.851562 0.953125 -5.75 C 0.953125 -7.707031 1.441406 -9.21875 2.421875 -10.28125 C 3.398438 -11.351562 4.753906 -11.890625 6.484375 -11.890625 C 8.140625 -11.890625 9.425781 -11.421875 10.34375 -10.484375 C 11.257812 -9.546875 11.71875 -8.25 11.71875 -6.59375 L 11.71875 -5.046875 L 4.1875 -5.046875 C 4.21875 -4.140625 4.484375 -3.429688 4.984375 -2.921875 C 5.492188 -2.410156 6.203125 -2.15625 7.109375 -2.15625 C 7.804688 -2.15625 8.46875 -2.226562 9.09375 -2.375 C 9.71875 -2.519531 10.375 -2.753906 11.0625 -3.078125 L 11.0625 -0.609375 C 10.5 -0.335938 9.898438 -0.132812 9.265625 0 C 8.640625 0.132812 7.867188 0.203125 6.953125 0.203125 Z M 6.953125 0.203125 "/></g></g><g transform="translate(133.495751, 32.688828)"><g><path d="M 0.734375 5.140625 C -0.078125 5.140625 -0.78125 5.050781 -1.375 4.875 L -1.375 2.375 C -0.882812 2.5 -0.382812 2.5625 0.125 2.5625 C 0.65625 2.5625 1.046875 2.410156 1.296875 2.109375 C 1.546875 1.816406 1.671875 1.378906 1.671875 0.796875 L 1.671875 -11.671875 L 4.859375 -11.671875 L 4.859375 1.265625 C 4.859375 2.503906 4.5 3.457031 3.78125 4.125 C 3.0625 4.800781 2.046875 5.140625 0.734375 5.140625 Z M 1.53125 -14.703125 C 1.53125 -15.734375 2.109375 -16.25 3.265625 -16.25 C 4.421875 -16.25 5 -15.734375 5 -14.703125 C 5 -14.203125 4.851562 -13.8125 4.5625 -13.53125 C 4.28125 -13.257812 3.847656 -13.125 3.265625 -13.125 C 2.109375 -13.125 1.53125 -13.648438 1.53125 -14.703125 Z M 1.53125 -14.703125 "/></g></g></g><g clip-path="url(#eb8867cd64)"><path fill="#8c52ff" d="M 35.886719 37.09375 C 35.886719 37.09375 37.007812 39.75 38.914062 39.671875 C 40.820312 39.585938 41.5625 38.902344 41.5625 38.902344 L 40.980469 43.320312 C 40.980469 43.320312 35.304688 43.476562 34.914062 38.339844 C 34.84375 37.359375 35.886719 37.09375 35.886719 37.09375 Z M 35.886719 37.09375 " fill-opacity="1" fill-rule="nonzero"/></g><path fill="#8c52ff" d="M 33.757812 27.574219 C 33.757812 28.320312 33.683594 29.054688 33.539062 29.785156 C 33.394531 30.515625 33.179688 31.222656 32.894531 31.910156 C 32.609375 32.597656 32.261719 33.25 31.847656 33.867188 C 31.433594 34.484375 30.964844 35.058594 30.441406 35.582031 C 29.914062 36.109375 29.339844 36.578125 28.722656 36.992188 C 28.105469 37.40625 27.453125 37.753906 26.765625 38.039062 C 26.078125 38.324219 25.371094 38.539062 24.640625 38.683594 C 23.910156 38.828125 23.175781 38.902344 22.433594 38.902344 C 21.6875 38.902344 20.953125 38.828125 20.222656 38.683594 C 19.492188 38.539062 18.785156 38.324219 18.097656 38.039062 C 17.410156 37.753906 16.757812 37.40625 16.140625 36.992188 C 15.523438 36.578125 14.949219 36.109375 14.425781 35.582031 C 13.898438 35.058594 13.429688 34.484375 13.015625 33.867188 C 12.601562 33.25 12.253906 32.597656 11.96875 31.910156 C 11.683594 31.222656 11.46875 30.515625 11.324219 29.785156 C 11.179688 29.054688 11.105469 28.320312 11.105469 27.574219 C 11.105469 26.832031 11.179688 26.097656 11.324219 25.367188 C 11.46875 24.636719 11.683594 23.929688 11.96875 23.242188 C 12.253906 22.554688 12.601562 21.902344 13.015625 21.285156 C 13.429688 20.664062 13.898438 20.09375 14.425781 19.566406 C 14.949219 19.042969 15.523438 18.574219 16.140625 18.160156 C 16.757812 17.746094 17.410156 17.398438 18.097656 17.113281 C 18.785156 16.828125 19.492188 16.613281 20.222656 16.46875 C 20.953125 16.324219 21.6875 16.25 22.433594 16.25 C 23.175781 16.25 23.910156 16.324219 24.640625 16.46875 C 25.371094 16.613281 26.078125 16.828125 26.765625 17.113281 C 27.453125 17.398438 28.105469 17.746094 28.722656 18.160156 C 29.339844 18.574219 29.914062 19.042969 30.441406 19.566406 C 30.964844 20.09375 31.433594 20.664062 31.847656 21.285156 C 32.261719 21.902344 32.609375 22.554688 32.894531 23.242188 C 33.179688 23.929688 33.394531 24.636719 33.539062 25.367188 C 33.683594 26.097656 33.757812 26.832031 33.757812 27.574219 Z M 33.757812 27.574219 " fill-opacity="1" fill-rule="nonzero"/><g clip-path="url(#42ccaa540b)"><path fill="#ccccce" d="M 22.433594 11.09375 C 13.332031 11.09375 5.949219 18.472656 5.949219 27.574219 C 5.949219 36.675781 13.332031 44.058594 22.433594 44.058594 C 31.535156 44.058594 38.914062 36.675781 38.914062 27.574219 C 38.914062 18.472656 31.535156 11.09375 22.433594 11.09375 Z M 22.433594 14.019531 C 24.929688 14.019531 26.941406 16.042969 26.941406 18.53125 C 26.941406 21.019531 24.921875 23.042969 22.433594 23.042969 C 19.941406 23.042969 17.921875 21.019531 17.921875 18.53125 C 17.921875 16.042969 19.933594 14.019531 22.433594 14.019531 Z M 25.375 27.050781 C 25.375 27.359375 25.128906 27.605469 24.820312 27.605469 C 24.511719 27.605469 24.265625 27.359375 24.265625 27.050781 C 24.265625 26.742188 24.511719 26.496094 24.820312 26.496094 C 25.128906 26.496094 25.375 26.742188 25.375 27.050781 Z M 22.984375 24.65625 C 22.984375 24.964844 22.742188 25.207031 22.433594 25.207031 C 22.121094 25.207031 21.878906 24.964844 21.878906 24.65625 C 21.878906 24.34375 22.121094 24.101562 22.433594 24.101562 C 22.734375 24.101562 22.984375 24.351562 22.984375 24.65625 Z M 20.589844 27.050781 C 20.589844 27.359375 20.34375 27.605469 20.035156 27.605469 C 19.726562 27.605469 19.480469 27.359375 19.480469 27.050781 C 19.480469 26.742188 19.726562 26.496094 20.035156 26.496094 C 20.34375 26.496094 20.589844 26.742188 20.589844 27.050781 Z M 9.351562 25.035156 C 9.351562 22.546875 11.375 20.523438 13.863281 20.523438 C 16.351562 20.523438 18.375 22.546875 18.375 25.035156 C 18.375 27.527344 16.351562 29.546875 13.863281 29.546875 C 11.375 29.546875 9.351562 27.53125 9.351562 25.035156 Z M 17.007812 39.339844 C 14.515625 39.339844 12.496094 37.316406 12.496094 34.828125 C 12.496094 32.339844 14.515625 30.316406 17.007812 30.316406 C 19.503906 30.316406 21.519531 32.339844 21.519531 34.828125 C 21.519531 37.316406 19.496094 39.339844 17.007812 39.339844 Z M 21.171875 27.050781 C 21.171875 26.351562 21.734375 25.792969 22.433594 25.792969 C 23.128906 25.792969 23.691406 26.351562 23.691406 27.050781 C 23.691406 27.75 23.128906 28.308594 22.433594 28.308594 C 21.734375 28.308594 21.171875 27.742188 21.171875 27.050781 Z M 22.433594 29.992188 C 22.121094 29.992188 21.878906 29.75 21.878906 29.4375 C 21.878906 29.128906 22.121094 28.886719 22.433594 28.886719 C 22.742188 28.886719 22.984375 29.128906 22.984375 29.4375 C 22.984375 29.75 22.734375 29.992188 22.433594 29.992188 Z M 27.769531 39.339844 C 25.28125 39.339844 23.257812 37.316406 23.257812 34.828125 C 23.257812 32.339844 25.28125 30.316406 27.769531 30.316406 C 30.265625 30.316406 32.28125 32.339844 32.28125 34.828125 C 32.289062 37.316406 30.265625 39.339844 27.769531 39.339844 Z M 30.992188 29.554688 C 28.503906 29.554688 26.484375 27.53125 26.484375 25.042969 C 26.484375 22.554688 28.503906 20.523438 30.992188 20.523438 C 33.492188 20.523438 35.503906 22.546875 35.503906 25.035156 C 35.503906 27.527344 33.492188 29.554688 30.992188 29.554688 Z M 30.992188 29.554688 " fill-opacity="1" fill-rule="nonzero"/></g><path fill="#b4b4b5" d="M 22.539062 42.75 C 14.171875 42.75 7.359375 35.945312 7.359375 27.570312 C 7.359375 19.199219 14.164062 12.386719 22.539062 12.386719 C 30.90625 12.386719 37.722656 19.195312 37.722656 27.570312 C 37.714844 35.945312 30.90625 42.75 22.539062 42.75 Z M 22.539062 13.113281 C 14.566406 13.113281 8.078125 19.605469 8.078125 27.574219 C 8.078125 35.546875 14.566406 42.039062 22.539062 42.039062 C 30.511719 42.039062 37 35.546875 37 27.574219 C 36.996094 19.605469 30.511719 13.113281 22.539062 13.113281 Z M 22.539062 13.113281 " fill-opacity="1" fill-rule="nonzero"/></svg>